<?xml version="1.0" encoding="UTF-8"?>
<svg width="10px" height="12px" viewBox="0 0 10 12" version="1.1" xmlns="http://www.w3.org/2000/svg" xmlns:xlink="http://www.w3.org/1999/xlink">
    <!-- Generator: sketchtool 44.1 (41455) - http://www.bohemiancoding.com/sketch -->
    <title>4FE5C2A0-AA20-4E7E-B334-B10ABF0652C0</title>
    <desc>Created with sketchtool.</desc>
    <defs></defs>
    <g id="Symbols" stroke="none" stroke-width="1" fill="none" fill-rule="evenodd">
        <g id="Industy-news-item" transform="translate(-99.000000, -82.000000)">
            <g id="ic_file_like" transform="translate(96.000000, 80.000000)">
                <g id="Icon-24px">
                    <path d="M12.0877628,8.21902115 C12.5693937,8.240996 12.9779769,7.861604 12.9990672,7.37154631 C13.0201574,6.88148861 12.6815027,6.44092088 12.1994993,6.4197375 L8.99964514,6.01795165 C8.99964514,6.01795165 9.6664793,4.90254198 9.6664793,3.24991249 C9.6664793,2.1482371 8.87943528,2 8.41656681,2 C8.05244547,1.99986033 7.95439668,2.70538325 7.95439668,2.70538325 L7.95365177,2.70538325 C7.87119954,3.15777643 7.76383938,3.55285809 7.39077912,4.28026275 C6.97316393,5.09556679 6.40442512,5.01907384 5.74043093,5.74526802 C5.62324727,5.87315976 5.46579191,6.08424864 5.31234044,6.34398946 C5.29981664,6.35772374 5.28813086,6.37695173 5.27681754,6.40400128 C5.26312982,6.43621864 5.2467418,6.45856594 5.23230917,6.48836234 C5.20688911,6.53505889 5.18188807,6.58175544 5.15730604,6.63077983 C4.74634848,7.04173739 4.1060983,6.99974308 3.83346122,6.99974308 C3.28660414,6.99974308 3.00018623,7.31749377 3.00018623,7.83301808 L3,11.6426743 C3,12.2210503 3.23664861,12.4161237 3.83350778,12.4161237 L4.66678277,12.4161237 C5.0863068,12.4161237 5.41481213,12.6566365 5.91674182,12.8327612 C6.60424723,13.0709461 7.63101261,13.2497246 9.39970839,13.2497246 C9.70903229,13.2497246 10.6684299,13.2508885 10.6684299,13.2508885 C10.9621572,13.2508885 11.1981075,13.1167116 11.368366,12.9546936 C11.4331731,12.8930989 11.5007737,12.8036166 11.5296855,12.6290283 C11.5343878,12.6019787 11.5394159,12.4885662 11.538671,12.473249 C11.5608786,11.9737868 11.2589573,11.7929599 11.0879073,11.7360208 C11.092563,11.7344379 11.0894903,11.7301546 11.0988016,11.7305271 L11.6417945,11.7548298 C12.1237979,11.7768046 12.5995626,11.4295834 12.5995626,10.8391025 C12.5995626,10.3494639 12.2026652,10.0041515 11.7222448,9.98064028 L12.0101525,9.99400211 C12.4921093,10.0151855 12.8995285,9.63579349 12.9218293,9.1457358 C12.9428264,8.65572466 12.5693937,8.24104255 12.0877628,8.21902115 Z" id="Shape" fill="#D7DBDE" fill-rule="nonzero"></path>
                    <polygon id="Shape" points="0 0 16 0 16 16 0 16"></polygon>
                </g>
            </g>
        </g>
    </g>
</svg>