<?xml version="1.0" encoding="UTF-8"?>
<svg width="14px" height="14px" viewBox="0 0 14 14" version="1.1" xmlns="http://www.w3.org/2000/svg" xmlns:xlink="http://www.w3.org/1999/xlink">
    <!-- Generator: sketchtool 44.1 (41455) - http://www.bohemiancoding.com/sketch -->
    <title>451B56D9-9F32-4CFF-BE14-A54D2A6E610D</title>
    <desc>Created with sketchtool.</desc>
    <defs></defs>
    <g id="Web---System" stroke="none" stroke-width="1" fill="none" fill-rule="evenodd">
        <g id="Test-Task" transform="translate(-961.000000, -297.000000)">
            <g id="Content" transform="translate(0.000000, 48.000000)">
                <g id="Decision-maker-social-insight" transform="translate(528.000000, 160.000000)">
                    <g id="Company-social-insight-01" transform="translate(16.000000, 88.000000)">
                        <g id="Sentiment" transform="translate(416.000000, 0.000000)">
                            <g id="ic_insert_emoticon-copy">
                                <g id="Icon-24px">
                                    <polygon id="Shape" points="0 0 16 0 16 16 0 16"></polygon>
                                    <path d="M7.99333333,1.33333333 C4.31333333,1.33333333 1.33333333,4.32 1.33333333,8 C1.33333333,11.68 4.31333333,14.6666667 7.99333333,14.6666667 C11.68,14.6666667 14.6666667,11.68 14.6666667,8 C14.6666667,4.32 11.68,1.33333333 7.99333333,1.33333333 L7.99333333,1.33333333 Z M8,13.3333333 C5.05333333,13.3333333 2.66666667,10.9466667 2.66666667,8 C2.66666667,5.05333333 5.05333333,2.66666667 8,2.66666667 C10.9466667,2.66666667 13.3333333,5.05333333 13.3333333,8 C13.3333333,10.9466667 10.9466667,13.3333333 8,13.3333333 L8,13.3333333 Z M10.3333333,7.33333333 C10.8866667,7.33333333 11.3333333,6.88666667 11.3333333,6.33333333 C11.3333333,5.78 10.8866667,5.33333333 10.3333333,5.33333333 C9.78,5.33333333 9.33333333,5.78 9.33333333,6.33333333 C9.33333333,6.88666667 9.78,7.33333333 10.3333333,7.33333333 L10.3333333,7.33333333 Z M5.66666667,7.33333333 C6.22,7.33333333 6.66666667,6.88666667 6.66666667,6.33333333 C6.66666667,5.78 6.22,5.33333333 5.66666667,5.33333333 C5.11333333,5.33333333 4.66666667,5.78 4.66666667,6.33333333 C4.66666667,6.88666667 5.11333333,7.33333333 5.66666667,7.33333333 L5.66666667,7.33333333 Z M8,11.6666667 C9.55333333,11.6666667 10.8733333,10.6933333 11.4066667,9.33333333 L4.59333333,9.33333333 C5.12666667,10.6933333 6.44666667,11.6666667 8,11.6666667 L8,11.6666667 Z" id="Shape" fill="#D7DBDE"></path>
                                </g>
                            </g>
                        </g>
                    </g>
                </g>
            </g>
        </g>
    </g>
</svg>