<?xml version="1.0" encoding="UTF-8"?>
<svg width="16px" height="16px" viewBox="0 0 16 16" version="1.1" xmlns="http://www.w3.org/2000/svg" xmlns:xlink="http://www.w3.org/1999/xlink">
    <!-- Generator: sketchtool 44.1 (41455) - http://www.bohemiancoding.com/sketch -->
    <title>B3942A63-44A2-4124-B0CF-6ED429E02485</title>
    <desc>Created with sketchtool.</desc>
    <defs></defs>
    <g id="Web---System" stroke="none" stroke-width="1" fill="none" fill-rule="evenodd">
        <g id="Test-Task" transform="translate(-640.000000, -296.000000)">
            <g id="Content" transform="translate(0.000000, 48.000000)">
                <g id="Decision-maker-social-insight" transform="translate(528.000000, 160.000000)">
                    <g id="Company-social-insight-01" transform="translate(16.000000, 88.000000)">
                        <g id="twitter-copy-5" transform="translate(96.000000, 0.000000)">
                            <rect id="Rectangle-6" fill="#55ACEE" x="0" y="0" width="16" height="16" rx="2"></rect>
                            <path d="M12.8086372,5.70846018 C12.4682478,5.85939823 12.1020885,5.96148673 11.7180885,6.00707965 C12.1101593,5.77217699 12.4110442,5.40049558 12.5530619,4.95688496 C12.1861947,5.17451327 11.7796814,5.33238938 11.3473982,5.41748673 C11.0010619,5.04863717 10.5076106,4.81812389 9.96120354,4.81812389 C8.91284956,4.81812389 8.06258407,5.66838938 8.06258407,6.71674336 C8.06258407,6.86555752 8.07943363,7.01040708 8.112,7.14945133 C6.5340885,7.07030088 5.13500885,6.31447788 4.19851327,5.16545133 C4.03511504,5.44580531 3.94138053,5.77217699 3.94138053,6.1200708 C3.94138053,6.77861947 4.27681416,7.36 4.7859823,7.70038938 C4.47490265,7.69061947 4.1819469,7.60523894 3.9260885,7.46265487 C3.9259469,7.47072566 3.9259469,7.47879646 3.9259469,7.48672566 C3.9259469,8.40665487 4.58067257,9.1739469 5.44906195,9.34824779 C5.2899115,9.39185841 5.12184071,9.41493805 4.94895575,9.41493805 C4.82633628,9.41493805 4.70753982,9.40318584 4.59171681,9.38109735 C4.83327434,10.1352212 5.53430088,10.684177 6.36530973,10.6996106 C5.71539823,11.2089204 4.89684956,11.512354 4.00707965,11.512354 C3.85415929,11.512354 3.70265487,11.5034336 3.55440708,11.4857345 C4.39419469,12.0246372 5.39242478,12.3388319 6.46456637,12.3388319 C9.95681416,12.3388319 11.8666195,9.44580531 11.8666195,6.93663717 C11.8666195,6.85437168 11.8647788,6.77238938 11.8610973,6.69111504 C12.232354,6.42350442 12.5541947,6.08920354 12.8086372,5.70846018 L12.8086372,5.70846018 Z" id="Shape" fill="#F1F2F2" fill-rule="nonzero"></path>
                        </g>
                    </g>
                </g>
            </g>
        </g>
    </g>
</svg>